<svg width="20" height="20" viewBox="0 0 24 24" fill="none" xmlns="http://www.w3.org/2000/svg">
<path d="M17.3402 5.45951C17.1029 5.45951 16.8709 5.52989 16.6736 5.66175C16.4762 5.79361 16.3224 5.98102 16.2316 6.20029C16.1408 6.41956 16.117 6.66084 16.1633 6.89362C16.2096 7.1264 16.3239 7.34022 16.4917 7.50804C16.6595 7.67586 16.8734 7.79015 17.1061 7.83645C17.3389 7.88276 17.5802 7.85899 17.7995 7.76817C18.0187 7.67734 18.2061 7.52353 18.338 7.3262C18.4699 7.12886 18.5402 6.89685 18.5402 6.65951C18.5402 6.34125 18.4138 6.03603 18.1888 5.81098C17.9637 5.58594 17.6585 5.45951 17.3402 5.45951V5.45951ZM21.9402 7.87951C21.9208 7.04981 21.7654 6.22891 21.4802 5.44951C21.226 4.78264 20.8302 4.17879 20.3202 3.67951C19.8251 3.16694 19.2198 2.77369 18.5502 2.52951C17.7729 2.23567 16.9511 2.07672 16.1202 2.05951C15.0602 1.99951 14.7202 1.99951 12.0002 1.99951C9.28024 1.99951 8.94024 1.99951 7.88024 2.05951C7.0494 2.07672 6.22759 2.23567 5.45024 2.52951C4.78192 2.77616 4.17718 3.16907 3.68024 3.67951C3.16767 4.17469 2.77442 4.77995 2.53024 5.44951C2.2364 6.22685 2.07745 7.04866 2.06024 7.87951C2.00024 8.93951 2.00024 9.27951 2.00024 11.9995C2.00024 14.7195 2.00024 15.0595 2.06024 16.1195C2.07745 16.9504 2.2364 17.7722 2.53024 18.5495C2.77442 19.2191 3.16767 19.8243 3.68024 20.3195C4.17718 20.8299 4.78192 21.2229 5.45024 21.4695C6.22759 21.7633 7.0494 21.9223 7.88024 21.9395C8.94024 21.9995 9.28024 21.9995 12.0002 21.9995C14.7202 21.9995 15.0602 21.9995 16.1202 21.9395C16.9511 21.9223 17.7729 21.7633 18.5502 21.4695C19.2198 21.2253 19.8251 20.8321 20.3202 20.3195C20.8325 19.8221 21.2286 19.2177 21.4802 18.5495C21.7654 17.7701 21.9208 16.9492 21.9402 16.1195C21.9402 15.0595 22.0002 14.7195 22.0002 11.9995C22.0002 9.27951 22.0002 8.93951 21.9402 7.87951V7.87951ZM20.1402 15.9995C20.133 16.6343 20.018 17.2632 19.8002 17.8595C19.6406 18.2947 19.3841 18.6879 19.0502 19.0095C18.7259 19.34 18.3335 19.5959 17.9002 19.7595C17.3039 19.9773 16.675 20.0922 16.0402 20.0995C15.0402 20.1495 14.6702 20.1595 12.0402 20.1595C9.41024 20.1595 9.04024 20.1595 8.04024 20.0995C7.38113 20.1119 6.72484 20.0104 6.10024 19.7995C5.68603 19.6276 5.3116 19.3723 5.00024 19.0495C4.66833 18.7283 4.41509 18.3347 4.26024 17.8995C4.0161 17.2947 3.88069 16.6515 3.86024 15.9995C3.86024 14.9995 3.80024 14.6295 3.80024 11.9995C3.80024 9.36951 3.80024 8.99951 3.86024 7.99951C3.86473 7.35057 3.98319 6.70746 4.21024 6.09951C4.38629 5.67742 4.65651 5.30117 5.00024 4.99951C5.30406 4.65568 5.67953 4.38261 6.10024 4.19951C6.70979 3.97956 7.35224 3.86459 8.00024 3.85951C9.00024 3.85951 9.37024 3.79951 12.0002 3.79951C14.6302 3.79951 15.0002 3.79951 16.0002 3.85951C16.635 3.86679 17.2639 3.98176 17.8602 4.19951C18.3147 4.36816 18.7225 4.64236 19.0502 4.99951C19.3779 5.30669 19.634 5.68224 19.8002 6.09951C20.0225 6.70844 20.1375 7.35129 20.1402 7.99951C20.1902 8.99951 20.2002 9.36951 20.2002 11.9995C20.2002 14.6295 20.1902 14.9995 20.1402 15.9995ZM12.0002 6.86951C10.9861 6.87149 9.99521 7.17404 9.1529 7.73893C8.31059 8.30382 7.65462 9.10571 7.26788 10.0433C6.88113 10.9808 6.78097 12.012 6.98004 13.0064C7.17911 14.0009 7.66848 14.914 8.38632 15.6305C9.10416 16.3469 10.0183 16.8345 11.0131 17.0317C12.008 17.2288 13.0389 17.1266 13.9757 16.738C14.9125 16.3495 15.7131 15.6919 16.2764 14.8485C16.8396 14.0051 17.1402 13.0137 17.1402 11.9995C17.1416 11.3246 17.0094 10.6561 16.7515 10.0325C16.4935 9.40882 16.1148 8.84232 15.6371 8.36556C15.1594 7.8888 14.5922 7.51119 13.968 7.25444C13.3439 6.99769 12.6751 6.86687 12.0002 6.86951V6.86951ZM12.0002 15.3295C11.3416 15.3295 10.6978 15.1342 10.1502 14.7683C9.60258 14.4024 9.17576 13.8823 8.92372 13.2738C8.67168 12.6654 8.60574 11.9958 8.73423 11.3499C8.86272 10.7039 9.17987 10.1106 9.64558 9.64485C10.1113 9.17914 10.7046 8.86198 11.3506 8.7335C11.9965 8.60501 12.6661 8.67095 13.2746 8.92299C13.8831 9.17503 14.4031 9.60185 14.769 10.1495C15.1349 10.6971 15.3302 11.3409 15.3302 11.9995C15.3302 12.4368 15.2441 12.8698 15.0768 13.2738C14.9094 13.6779 14.6641 14.045 14.3549 14.3542C14.0457 14.6634 13.6786 14.9087 13.2746 15.076C12.8706 15.2434 12.4375 15.3295 12.0002 15.3295V15.3295Z" fill="#2c98f0"/>
</svg>
