<svg width="20" height="20" viewBox="0 0 29 29" fill="none" xmlns="http://www.w3.org/2000/svg">
<path d="M6.17271 5.61328H22.2263C23.0861 5.61322 23.9133 5.94218 24.5382 6.53266C25.1632 7.12313 25.5385 7.93037 25.5872 8.78878L25.5924 8.97935V20.8901C25.5924 21.7499 25.2635 22.5771 24.673 23.202C24.0825 23.827 23.2753 24.2023 22.4169 24.251L22.2263 24.2561H6.17271C5.31293 24.2562 4.48571 23.9272 3.86076 23.3368C3.23581 22.7463 2.8605 21.939 2.81182 21.0806L2.80664 20.8901V8.97935C2.80658 8.11957 3.13554 7.29235 3.72601 6.6674C4.31649 6.04245 5.12373 5.66714 5.98214 5.61846L6.17271 5.61328H22.2263H6.17271ZM24.0388 11.7292L14.5579 16.6592C14.466 16.7069 14.3656 16.7358 14.2624 16.7441C14.1593 16.7525 14.0555 16.7402 13.9571 16.7079L13.8411 16.6592L4.36021 11.7292V20.8901C4.36023 21.3449 4.53128 21.7832 4.83942 22.1178C5.14755 22.4524 5.57024 22.6589 6.02357 22.6964L6.17271 22.7026H22.2263C22.6813 22.7025 23.1197 22.5313 23.4543 22.223C23.789 21.9146 23.9954 21.4917 24.0326 21.0382L24.0388 20.8901V11.7292V11.7292ZM22.2263 7.16685H6.17271C5.71784 7.16687 5.2796 7.33792 4.94499 7.64606C4.61037 7.95419 4.40386 8.37688 4.36643 8.83021L4.36021 8.97935V9.97778L14.1995 15.0942L24.0388 9.97778V8.97935C24.0387 8.52431 23.8675 8.08593 23.5592 7.7513C23.2508 7.41666 22.8279 7.21025 22.3744 7.17307L22.2263 7.16685Z" fill="#2c98f0"/>
</svg>