<svg width="20" height="20" viewBox="0 0 26 26" fill="none" xmlns="http://www.w3.org/2000/svg">
<path fill-rule="evenodd" clip-rule="evenodd" d="M19.9095 6.09703C19.0098 5.19175 17.9394 4.47398 16.7603 3.98528C15.5813 3.49658 14.317 3.24667 13.0406 3.25003C7.69031 3.25003 3.33125 7.60503 3.33125 12.9553C3.32719 14.659 3.77403 16.3333 4.62637 17.8084L3.25 22.8386L8.398 21.4866C9.82149 22.262 11.4164 22.669 13.0374 22.6704H13.0414C18.3926 22.6704 22.7467 18.3162 22.75 12.9618C22.75 10.3692 21.7409 7.93166 19.9095 6.09622V6.09703ZM13.0406 21.03H13.0374C11.5924 21.03 10.1739 20.6419 8.93019 19.9063L8.63525 19.7316L5.57863 20.5319L6.39437 17.5541L6.20425 17.2494C5.39549 15.9633 4.96731 14.4746 4.96925 12.9553C4.96925 8.50935 8.59056 4.89128 13.0439 4.89128C14.1037 4.88864 15.1535 5.09624 16.1326 5.50209C17.1117 5.90794 18.0005 6.50396 18.7476 7.25566C19.4984 8.00375 20.0936 8.89318 20.4987 9.87259C20.9038 10.852 21.1109 11.902 21.1079 12.9618C21.1079 17.4119 17.4866 21.03 13.0398 21.03H13.0406ZM17.4647 14.9866C17.2234 14.8663 16.0298 14.2797 15.808 14.2001C15.5862 14.1172 15.4237 14.079 15.262 14.3203C15.0995 14.5641 14.6364 15.1109 14.4942 15.2726C14.3544 15.431 14.2114 15.4538 13.9701 15.3327C13.7264 15.2125 12.9456 14.9549 12.0185 14.127C11.2978 13.4851 10.8095 12.6888 10.6697 12.4475C10.5267 12.2038 10.6535 12.0738 10.7746 11.9519C10.8851 11.8447 11.0183 11.67 11.1394 11.527C11.2596 11.388 11.3019 11.2865 11.3831 11.124C11.4628 10.9623 11.4221 10.8193 11.3612 10.699C11.3011 10.5788 10.816 9.38197 10.6129 8.8961C10.4154 8.42322 10.2156 8.48985 10.0669 8.48091C9.92713 8.47441 9.76544 8.47441 9.60375 8.47441C9.44125 8.47441 9.178 8.53453 8.95538 8.7791C8.73356 9.02041 8.10794 9.60785 8.10794 10.8006C8.10794 11.9942 8.97731 13.1487 9.09919 13.3112C9.21944 13.4697 10.8095 15.9193 13.2429 16.9707C13.8214 17.221 14.2716 17.3705 14.6242 17.4818C15.2051 17.6654 15.7349 17.6402 16.1541 17.5793C16.6205 17.5102 17.5882 16.9927 17.7913 16.4247C17.992 15.86 17.992 15.3742 17.9311 15.2726C17.8709 15.171 17.7093 15.1101 17.4647 14.9866V14.9866Z" fill="#2c98f0"/>
</svg>
